<?xml version="1.0" encoding="UTF-8" standalone="no"?>
<svg
   version="1.1"
   width="512"
   height="512"
   style="clip-rule:evenodd;fill-rule:evenodd;image-rendering:optimizeQuality;shape-rendering:geometricPrecision;text-rendering:geometricPrecision"
   id="svg38"
   sodipodi:docname="favicon1.svg"
   inkscape:version="1.4.2 (f4327f4, 2025-05-13)"
   xmlns:inkscape="http://www.inkscape.org/namespaces/inkscape"
   xmlns:sodipodi="http://sodipodi.sourceforge.net/DTD/sodipodi-0.dtd"
   xmlns="http://www.w3.org/2000/svg"
   xmlns:svg="http://www.w3.org/2000/svg">
  <defs
     id="defs38" />
  <sodipodi:namedview
     id="namedview38"
     pagecolor="#ffffff"
     bordercolor="#000000"
     borderopacity="0.25"
     inkscape:showpageshadow="2"
     inkscape:pageopacity="0.0"
     inkscape:pagecheckerboard="0"
     inkscape:deskcolor="#d1d1d1"
     inkscape:zoom="0.79589844"
     inkscape:cx="479.33252"
     inkscape:cy="239.35215"
     inkscape:window-width="1920"
     inkscape:window-height="1017"
     inkscape:window-x="-8"
     inkscape:window-y="-8"
     inkscape:window-maximized="1"
     inkscape:current-layer="svg38" />
  <g
     id="g8"
     transform="matrix(0.81141046,0,0,0.81141046,-158.63074,-158.20171)"
     style="fill:#fe444e;fill-opacity:1">
    <path
       style="opacity:1;fill:#fe444e;fill-opacity:1"
       fill="#dd2020"
       d="m 366.5,256.5 c 7.054,6.557 13.221,13.89 18.5,22 14.548,30.424 29.048,60.758 43.5,91 20.275,45.218 41.108,90.218 62.5,135 3.45,7.828 5.95,15.828 7.5,24 0.13,8.972 -1.37,17.638 -4.5,26 -32.452,43.886 -58.452,91.553 -78,143 -3.592,-8.182 -7.425,-16.182 -11.5,-24 -0.16,-1.653 -0.826,-2.986 -2,-4 -13.877,-32.085 -28.544,-63.751 -44,-95 -53.775,-116.885 -108.108,-233.552 -163,-350 27.661,-0.892 55.328,-1.559 83,-2 34.403,-1.427 63.736,9.906 88,34 z"
       id="path8" />
  </g>
  <g
     id="g11"
     transform="matrix(0.81141046,0,0,0.81141046,-158.63074,-158.20171)"
     style="fill:#fe444e;fill-opacity:1">
    <path
       style="opacity:1;fill:#fe444e;fill-opacity:1"
       fill="#06406c"
       d="m 784.5,315.5 c -1.193,2.552 -2.527,5.052 -4,7.5 -77.353,36.642 -147.02,84.142 -209,142.5 -11.247,9.743 -22.08,20.076 -32.5,31 -0.464,0.594 -0.631,1.261 -0.5,2 -1.017,2.099 -2.35,3.099 -4,3 3.867,-8.275 7.533,-16.608 11,-25 0.941,-1.55 1.607,-3.216 2,-5 2.269,-3.538 4.269,-7.205 6,-11 3.785,-5.514 7.285,-11.847 10.5,-19 3.519,-8.365 7.019,-16.699 10.5,-25 8.376,-16.421 16.543,-33.088 24.5,-50 0.74,-1.249 5.978,-12.277 8,-17 5.133,-10.912 9.967,-21.912 14.5,-33 6.926,-18.522 15.926,-35.855 27,-52 1,-1.333 2,-2.667 3,-4 4.131,-3.63 8.131,-7.463 12,-11.5 19.815,-16.496 42.648,-25.33 68.5,-26.5 31.522,0.466 63.022,1.466 94.5,3 -14.014,30.026 -28.014,60.026 -42,90 z"
       id="path11"
       sodipodi:nodetypes="cccccccccccccccccccc" />
  </g>
  <g
     id="g21"
     transform="translate(-195.5,-222.38031)"
     style="fill:#0e9de0;fill-opacity:1">
    <path
       style="opacity:1;stroke-width:0.81141;fill:#0e9de0;fill-opacity:1"
       fill="#06406b"
       d="m 660.43819,345.33232 c 0.59964,-0.10629 1.14085,0.0292 1.62282,0.40571 -10.88426,22.71381 -21.43259,45.56881 -31.645,68.56418 -21.83181,45.55908 -43.46888,91.26826 -64.91284,137.12837 -19.6483,42.81407 -39.52786,85.54863 -59.63867,128.20285 -6.91159,12.99961 -17.05422,22.46634 -30.42789,28.39937 -4.80923,1.87598 -9.67769,3.2286 -14.60539,4.05705 -5.41616,0.1347 -10.82584,0 -16.22821,-0.4057 -2.66954,-0.20529 -14.85264,-3.1194 -17.05156,-4.53693 0,0 -3.83881,-0.80623 -9.6314,-5.24032 -12.88682,-7.75221 -23.07056,-18.90467 -27.49437,-33.33155 -2.86103,-6.95865 -4.54597,-13.22572 -5.05563,-20.58692 5.82349,-16.24363 12.31477,-32.20083 19.47385,-47.87322 10.6879,-22.72761 23.26476,-44.36549 37.73058,-64.91284 16.61445,-23.51305 34.87118,-45.69133 54.77021,-66.53566 9.73693,-9.19571 19.20365,-18.66244 28.39937,-28.39936 40.34576,-38.03081 85.24435,-69.67582 134.69413,-94.93503 z"
       id="path21"
       sodipodi:nodetypes="ccccccccccccccccc" />
  </g>
</svg>
